<svg xmlns="http://www.w3.org/2000/svg" width="15.679" height="18.585" viewBox="0 0 15.679 18.585"><defs><style>.a{fill:#fff;}</style></defs><g transform="translate(0 0)"><path class="a" d="M134.589,7.88a3.93,3.93,0,0,0,2.417,2.994,2.648,2.648,0,0,0,1.774,0A4,4,0,0,0,141.2,7.88c.185-.015.427-.273.689-1.2.358-1.266-.023-1.455-.346-1.424a3.356,3.356,0,0,0,.139-.519c.546-3.282-1.07-3.394-1.07-3.394a2.493,2.493,0,0,0-.974-.9,3.288,3.288,0,0,0-2-.423,2.982,2.982,0,0,0-.8.15h0a3.5,3.5,0,0,0-.877.45,4.6,4.6,0,0,0-.9.747A3.655,3.655,0,0,0,134.1,3.07a3.709,3.709,0,0,0,.008,1.67h0a3.244,3.244,0,0,0,.139.519c-.323-.031-.7.158-.346,1.424C134.162,7.607,134.4,7.865,134.589,7.88Z" transform="translate(-130.058 0)"/><path class="a" d="M51.944,276.1a12.2,12.2,0,0,1-3.563-1.624l-1.247,3.944-.235.743,0-.012-.2.631-.658-1.866c1.616-2.255-.327-2.232-.435-2.228s-2.051-.027-.435,2.228l-.658,1.866-.2-.631,0,.012-.235-.743-1.251-3.944a12.2,12.2,0,0,1-3.563,1.624c-1.466.373-1.535,2.066-1.478,2.9,0,0,.085,1.135.169,1.635A15.04,15.04,0,0,0,45.6,282.5a14.994,14.994,0,0,0,7.658-1.862c.085-.5.169-1.635.169-1.635C53.479,278.164,53.41,276.471,51.944,276.1Z" transform="translate(-37.758 -263.912)"/></g></svg>