<svg xmlns="http://www.w3.org/2000/svg" width="12.666" height="15.984" viewBox="0 0 12.666 15.984"><defs><style>.a{fill:#fff;}</style></defs><path class="a" d="M93.232,15.984H98.57a1,1,0,0,0,1-1V1a1,1,0,0,0-1-1H91.457V.329a.969.969,0,0,1,.006.105V3.162a1.4,1.4,0,0,1-1.4,1.4H87.333c-.028,0-.058,0-.087,0H86.9V14.989a1,1,0,0,0,1,1h5.336Zm.2-3.384h-3.48a.471.471,0,0,1,0-.941h3.482a.471.471,0,1,1,0,.941Zm3.482-2.4H89.953a.471.471,0,0,1,0-.941h6.963a.471.471,0,0,1,0,.941ZM89.953,6.707h6.963a.471.471,0,0,1,0,.941H89.953a.471.471,0,0,1,0-.941Z" transform="translate(-86.9)"/><path class="a" d="M87.967,4.785H90.7a.836.836,0,0,0,.828-.828V1.22A.419.419,0,0,0,91.108.8a.408.408,0,0,0-.294.124L87.669,4.07A.419.419,0,0,0,87.967,4.785Z" transform="translate(-87.534 -0.785)"/></svg>