<svg xmlns="http://www.w3.org/2000/svg" xmlns:xlink="http://www.w3.org/1999/xlink" width="551" height="304" viewBox="0 0 551 304">
  <defs>
    <clipPath id="clip-path">
      <rect id="Rectangle_41" data-name="Rectangle 41" width="551" height="304" transform="translate(0.152 1223.76)" fill="#fff" stroke="#707070" stroke-width="1"/>
    </clipPath>
    <linearGradient id="linear-gradient" x1="0.141" y1="0.451" x2="1.272" y2="0.451" gradientUnits="objectBoundingBox">
      <stop offset="0" stop-color="gray" stop-opacity="0.251"/>
      <stop offset="0.54" stop-color="gray" stop-opacity="0.122"/>
      <stop offset="1" stop-color="gray" stop-opacity="0.102"/>
    </linearGradient>
  </defs>
  <g id="Group_12" data-name="Group 12" transform="translate(-1388 -1523)" opacity="0.15">
    <g id="Mask_Group_1" data-name="Mask Group 1" transform="translate(1387.848 299.24)" clip-path="url(#clip-path)">
      <g id="undraw_going_up_ttm5" transform="translate(54.875 1224)">
        <path id="Path_114" data-name="Path 114" d="M1002.222,379.56a2.925,2.925,0,0,0,.531-1.628c0-3.534-7.2-6.394-16.082-6.394s-16.082,2.86-16.082,6.394a3.015,3.015,0,0,0,.663,1.814c-9.889,1.1-16.551,3.174-16.551,5.549,0,3.53,14.726,6.394,32.939,6.394s32.939-2.864,32.939-6.394C1020.559,382.8,1013.073,380.606,1002.222,379.56Z" transform="translate(-694.718 -288.273)" fill="#1c5997" opacity="0.1"/>
        <g id="Group_14" data-name="Group 14" transform="translate(325.822 22.625)" opacity="0.2">
          <path id="Path_115" data-name="Path 115" d="M1279.836,1020.717a18.55,18.55,0,0,0-.167,3.046q10.13.163,20.348.682c.046-.264.093-.539.132-.814a16.18,16.18,0,0,0-.949-8.417c-1.4-3.422-4.019-5.867-7.293-6.336s-6.468,1.139-8.773,4.011A16.145,16.145,0,0,0,1279.836,1020.717Z" transform="translate(-1252.989 -766.739)" fill="#3f3d56"/>
          <ellipse id="Ellipse_19" data-name="Ellipse 19" cx="13.431" cy="10.261" rx="13.431" ry="10.261" transform="translate(27.291 251.031) rotate(-81.82)" fill="#3f3d56"/>
          <ellipse id="Ellipse_20" data-name="Ellipse 20" cx="13.431" cy="10.261" rx="13.431" ry="10.261" transform="translate(29.625 234.785) rotate(-81.82)" fill="#3f3d56"/>
          <ellipse id="Ellipse_21" data-name="Ellipse 21" cx="13.431" cy="10.261" rx="13.431" ry="10.261" transform="translate(31.959 218.534) rotate(-81.82)" fill="#3f3d56"/>
          <ellipse id="Ellipse_22" data-name="Ellipse 22" cx="13.431" cy="10.261" rx="13.431" ry="10.261" transform="translate(34.294 202.284) rotate(-81.82)" fill="#3f3d56"/>
          <path id="Path_116" data-name="Path 116" d="M1286.321,243.243a49.852,49.852,0,0,0,4.584-5.038l-26.056-8.2,28.831,4.363a49.245,49.245,0,0,0,6.468-38.426l-41.6,14.52,39.476-21.108a49.148,49.148,0,1,0-88.167,42.9,49.208,49.208,0,0,0-6.82,8.076l32.055,22.972-35.151-17.7a49.164,49.164,0,0,0,1.279,46.8,49.144,49.144,0,1,0,76.468,10.99,49.152,49.152,0,0,0,8.642-60.15Z" transform="translate(-1185.978 -158.53)" fill="#1c5997"/>
          <path id="Path_117" data-name="Path 117" d="M1195.114,516.618a48.915,48.915,0,0,0,6.088,31.571,49.144,49.144,0,1,0,76.468,10.99C1285.377,551.839,1195.9,511.158,1195.114,516.618Z" transform="translate(-1185.969 -414.316)" opacity="0.1"/>
        </g>
        <g id="Group_15" data-name="Group 15" transform="translate(0 38.274)" opacity="0.2">
          <path id="Path_118" data-name="Path 118" d="M267.468,966.88a15.75,15.75,0,0,0,.678,2.573q8.258-2.658,16.686-5.038c-.031-.232-.066-.473-.108-.713a14.261,14.261,0,0,0-3.015-6.727c-2.05-2.453-4.825-3.763-7.607-3.247s-4.945,2.713-6.049,5.751A14.458,14.458,0,0,0,267.468,966.88Z" transform="translate(-202.962 -742.917)" fill="#3f3d56"/>
          <ellipse id="Ellipse_23" data-name="Ellipse 23" cx="8.773" cy="11.738" rx="8.773" ry="11.738" transform="matrix(0.988, -0.156, 0.156, 0.988, 60.216, 198.01)" fill="#3f3d56"/>
          <ellipse id="Ellipse_24" data-name="Ellipse 24" cx="8.798" cy="11.771" rx="8.798" ry="11.771" transform="matrix(0.987, -0.16, 0.16, 0.987, 58.846, 184.162)" fill="#3f3d56"/>
          <ellipse id="Ellipse_25" data-name="Ellipse 25" cx="8.773" cy="11.738" rx="8.773" ry="11.738" transform="matrix(0.988, -0.156, 0.156, 0.988, 55.332, 169.742)" fill="#3f3d56"/>
          <ellipse id="Ellipse_26" data-name="Ellipse 26" cx="8.773" cy="11.738" rx="8.773" ry="11.738" transform="matrix(0.988, -0.156, 0.156, 0.988, 52.894, 155.606)" fill="#3f3d56"/>
          <path id="Path_119" data-name="Path 119" d="M120.456,276.671a43.789,43.789,0,0,0,2.375-5.425l-23.328.364,24.553-4.329a43.878,43.878,0,0,0,.729-18.391,43.359,43.359,0,0,0-5.727-15.28L89.176,257.137l26.4-28.416a41.3,41.3,0,0,0-39.426-14.532C53.3,218.382,38.087,240.734,42.121,264.1a42.905,42.905,0,0,0,13.361,24.533,43.514,43.514,0,0,0-3.383,8.583l32.133,10.234-33.252-5a43.874,43.874,0,0,0,.163,13.974A42.905,42.905,0,0,0,64.5,340.956a43.766,43.766,0,0,0-4.329,27.789c4.034,23.371,25.808,38.906,48.637,34.7s38.062-26.552,34.028-49.923a42.917,42.917,0,0,0-13.361-24.53,43.789,43.789,0,0,0,4.329-27.792A42.917,42.917,0,0,0,120.456,276.671Z" transform="translate(-41.473 -213.503)" fill="#1c5997"/>
          <path id="Path_120" data-name="Path 120" d="M75.463,571.738a42.905,42.905,0,0,0,13.361,24.533A43.766,43.766,0,0,0,84.5,624.06c4.034,23.371,25.808,38.906,48.637,34.7s38.062-26.552,34.028-49.923a42.917,42.917,0,0,0-13.361-24.53C158.1,576.086,74.642,566.991,75.463,571.738Z" transform="translate(-65.782 -468.818)" opacity="0.1"/>
        </g>
        <path id="Path_121" data-name="Path 121" d="M196.448,886.751c0,20.271,12.714,36.67,28.428,36.67" transform="translate(-152.329 -656.812)" fill="#46455b"/>
        <path id="Path_122" data-name="Path 122" d="M296.3,922.389c0-20.5,14.191-37.081,31.73-37.081" transform="translate(-223.758 -655.78)" fill="#1c5997"/>
        <path id="Path_123" data-name="Path 123" d="M232.628,893.2c0,19.255,8.107,34.834,18.128,34.834" transform="translate(-178.209 -661.427)" fill="#1c5997"/>
        <path id="Path_124" data-name="Path 124" d="M296.3,896.508c0-26.188,16.4-47.381,36.674-47.381" transform="translate(-223.758 -629.9)" fill="#46455b"/>
        <ellipse id="Ellipse_27" data-name="Ellipse 27" cx="198.019" cy="6.584" rx="198.019" ry="6.584" transform="translate(6.53 275.343)" fill="#1c5997" opacity="0.1"/>
        <ellipse id="Ellipse_28" data-name="Ellipse 28" cx="7.239" cy="1.225" rx="7.239" ry="1.225" transform="translate(62.026 269.364)" fill="#6c63ff" opacity="0.1"/>
        <path id="Path_125" data-name="Path 125" d="M267.693,1003.963s4.131-.124,5.375-1.011,6.347-1.938,6.658-.523,6.2,7.068,1.55,7.1-10.827-.725-12.071-1.48S267.693,1003.963,267.693,1003.963Z" transform="translate(-203.291 -739.063)" fill="#a8a8a8"/>
        <path id="Path_126" data-name="Path 126" d="M281.352,1014.624c-4.65.035-10.831-.728-12.071-1.484-.946-.573-1.325-2.643-1.449-3.6h-.139s.264,3.333,1.5,4.088,7.413,1.519,12.071,1.48c1.345,0,1.81-.488,1.786-1.2C282.868,1014.349,282.352,1014.617,281.352,1014.624Z" transform="translate(-203.291 -744.648)" opacity="0.2"/>
        <path id="Path_127" data-name="Path 127" d="M591.108,229.091A59.486,59.486,0,0,0,479.891,213.2a47.608,47.608,0,0,0,5.166,94.941H588.329a39.839,39.839,0,0,0,39.72-39.72A39.236,39.236,0,0,0,591.108,229.091Zm-45.68,23.425V282.7H520.007V252.516H493l39.72-39.7,39.72,39.72Z" transform="translate(-324.68 -152.007)" fill="#1c5997"/>
        <path id="Path_158" data-name="Path 158" d="M725.863,414.491a2.848,2.848,0,0,0-3.406-.167,4.831,4.831,0,0,0-1.43,2.426,17.313,17.313,0,0,0-1.341,4.026c-.345,3.875-3.061,7.134-3.875,10.932a20.824,20.824,0,0,1-.918,4.049,12.2,12.2,0,0,1-.93,1.6,42.353,42.353,0,0,0-3.488,6.754,5.13,5.13,0,0,0-1.767,1.368,6.588,6.588,0,0,1-2.422,1.473,2.39,2.39,0,0,0-1,.492c-.388.411-.388,1.073-.709,1.55a2.3,2.3,0,0,1-.884.725,3.306,3.306,0,0,1-.054-.333c-.081-.593-.147-1.186-.209-1.779a6.712,6.712,0,0,0-.915-8.661,13.031,13.031,0,0,1,.081-2.775,1.221,1.221,0,0,0-.388-1.232c-.19-.12-.422-.147-.624-.248a2.531,2.531,0,0,1-.729-.748,3.488,3.488,0,0,0-4.449-.659c-1.085.725-1.659,2.011-2.585,2.937-.481.477-1.05.853-1.527,1.329a6.874,6.874,0,0,0-1.775,3.693,20.105,20.105,0,0,0-.167,4.154,3.8,3.8,0,0,0,.178,1.24,3.258,3.258,0,0,0,.566.9,10.765,10.765,0,0,0,4.356,3.367,1.874,1.874,0,0,1,.019.248,1.652,1.652,0,0,1-.031.387l-.19-.031a7.878,7.878,0,0,1-2.081-.267c-1.1-.477-1.55-1.879-2.639-2.43a1.611,1.611,0,0,0-.283-.116,17.966,17.966,0,0,0-1.577-5.208,6.446,6.446,0,0,1-.872-2.457,6.251,6.251,0,0,1,.539-2.36,60.978,60.978,0,0,0,2.069-8.138q.527-2.592,1.062-5.185a7.786,7.786,0,0,0,1.263-1.476,7.191,7.191,0,0,0,1.263-3.654,4.956,4.956,0,0,0-1.279-3.592,2.123,2.123,0,0,0-1.593-.775,1.938,1.938,0,0,0-1.333.775,6.373,6.373,0,0,0-1.008,2.2,9.613,9.613,0,0,0-.6,3.96c.159,1.1.7,2.3.147,3.271a78.356,78.356,0,0,0-4.41,10.145,17.015,17.015,0,0,0-.845,2.519,13.326,13.326,0,0,0-.139,4.208,55.579,55.579,0,0,0,1.515,7.785,10,10,0,0,0,1.283,3.348,14.434,14.434,0,0,0-.171,3.937,2.177,2.177,0,0,0,.232.872,3.714,3.714,0,0,0,.8.818,3.98,3.98,0,0,1,1.267,3.038,9.013,9.013,0,0,0,.608,3.1c.926,2.763,1.856,5.526,2.666,8.328a5.469,5.469,0,0,1,.287,1.608,10.713,10.713,0,0,0-.2,2.325,8.284,8.284,0,0,1,.318,1.073,2.78,2.78,0,0,1-.109.833c-.5,2.189-1.961,7.239-1.709,9.475l.5-.174c-.213,2.961-1.128,5.859-1.461,8.82a28.986,28.986,0,0,0,.07,6.479,22.8,22.8,0,0,1,.248,2.9c0,.872-.14,1.732-.174,2.6a23.688,23.688,0,0,0,.205,3.488,36.038,36.038,0,0,0,.864,5.383c.806,3.007.264,6.138.353,9.254a56.323,56.323,0,0,1-.066,6.522c-.081.918-.209,1.833-.236,2.755-.081,2.736.729,5.46.442,8.18-.136,1.275-.461,2.713.341,3.716.256.314.6.539.872.837a1.163,1.163,0,0,1,.337,1.1c-.1.306-.388.531-.453.853-.074.5.481.852.961,1.015l.136.039a1.2,1.2,0,0,0,.345.915,2.054,2.054,0,0,0,1.035.411l6.2,1.2a8.079,8.079,0,0,0,4.185.05,1.061,1.061,0,0,0,.291.492,2.054,2.054,0,0,0,1.031.411l6.2,1.2c1.581.306,3.317.589,4.728-.194a2.658,2.658,0,0,0,1-.926,2.871,2.871,0,0,0,.136-2.422,1.98,1.98,0,0,0-.69-1,2.573,2.573,0,0,0-1.442-.31,2.843,2.843,0,0,1-1.248-.19.925.925,0,0,1-.31-.264c.31-.388.608-.775.891-1.163-.267-.062-.388-.43-.453-.7-.8-4.022.322-8.138.484-12.245a26.079,26.079,0,0,0-.481-6.134c-.151-.775-.333-1.511-.442-2.279-.57-4,.953-8.068.469-12.083-.229-1.876.577-3.836.864-5.7a20.506,20.506,0,0,0-.074-5.038l-1.283-13.175a15.8,15.8,0,0,0-1.116-5.22,6.835,6.835,0,0,1-.527-2.864c1.55-.887,2.976-2.108,4.728-2.112.337-1.279-.632-5.313-1.2-6.506a28.385,28.385,0,0,1-2.523-15.094c.205-1.856-.535-3.728-.287-5.58a3.36,3.36,0,0,1,.356-1.244,1.283,1.283,0,0,1,1.031-.686c-.109-1.112-.252-2.232-.442-3.344a8.137,8.137,0,0,0,1.55-2.228,29.249,29.249,0,0,0,1.631-5.352c.853-3.181,2.155-6.22,3.185-9.343s.829-6.425,1.569-9.634a7.068,7.068,0,0,1,3.023-4.3,5.678,5.678,0,0,0,1.666-1.259,2.875,2.875,0,0,0,.465-1.585A4.057,4.057,0,0,0,725.863,414.491ZM702.178,550.074c.116-.159.229-.318.333-.484-.411-.023-.93-.264-.98-.674a4.375,4.375,0,0,1,.136-1.221,4.852,4.852,0,0,0-.128-2.135c-.143-.481-.356-.942-.511-1.422a14.38,14.38,0,0,1-.36-1.631,27.869,27.869,0,0,0-1.763-5.731c-.775-1.786-.174-3.736-.167-5.685a10.842,10.842,0,0,1,.093-2.747c.136-.527.388-1.015.531-1.55a6.78,6.78,0,0,0-.473-3.724c1.531-3.619,1.736-7.75,2.05-11.687q.263-3.3.527-6.588a6.263,6.263,0,0,1,.682-2.837,33.815,33.815,0,0,1,1.624,8.645,13.117,13.117,0,0,0,.295,2.527c.244.918.721,1.752,1.039,2.643.705,1.961.632,4.1.949,6.161.128.833.322,1.655.446,2.488.535,3.677-.329,7.4-1.19,11.017a39.511,39.511,0,0,0-.562,6.944c-.112,2.182-.229,4.363-.174,6.549,0,.667.043,1.349.035,2.027a4.958,4.958,0,0,0-.635-.035,2.845,2.845,0,0,1-1.248-.19A1.423,1.423,0,0,1,702.178,550.074Z" transform="translate(-500.244 -318.531)" fill="url(#linear-gradient)"/>
        <path id="Path_159" data-name="Path 159" d="M769.841,899.52a2.612,2.612,0,0,1,1.442.306,2.007,2.007,0,0,1,.69,1,2.841,2.841,0,0,1-.139,2.406,2.639,2.639,0,0,1-1,.918c-1.411.775-3.147.5-4.728.2l-6.2-1.19a2.062,2.062,0,0,1-1.035-.388,1.341,1.341,0,0,1-.182-1.55,2.968,2.968,0,0,1,1.163-1.163,14.169,14.169,0,0,1,5.921-1.786c.775-.093,1.5-.341,2.081.2.31.283.295.636.729.864A2.9,2.9,0,0,0,769.841,899.52Z" transform="translate(-554.391 -664.955)" fill="#3f3d56"/>
        <path id="Path_160" data-name="Path 160" d="M728.676,892.029a2.6,2.6,0,0,1,1.438.306,1.96,1.96,0,0,1,.69,1,2.825,2.825,0,0,1-.136,2.406,2.67,2.67,0,0,1-1,.918c-1.411.775-3.147.5-4.732.2l-6.2-1.194a2.058,2.058,0,0,1-1.035-.388,1.341,1.341,0,0,1-.186-1.55,3.042,3.042,0,0,1,1.182-1.163,14.434,14.434,0,0,1,5.921-1.783c.775-.1,1.5-.341,2.081.194.306.283.294.636.725.864A2.868,2.868,0,0,0,728.676,892.029Z" transform="translate(-524.94 -659.595)" fill="#3f3d56"/>
        <path id="Path_161" data-name="Path 161" d="M717.077,658.466a74.494,74.494,0,0,0-10.707.818,2.14,2.14,0,0,0-.678.178c-.752.387-.775,1.442-.756,2.286.05,3.437-1.124,6.766-1.511,10.176a28.379,28.379,0,0,0,.066,6.437,24.042,24.042,0,0,1,.248,2.887c0,.86-.143,1.717-.178,2.581a23.381,23.381,0,0,0,.2,3.449,35.6,35.6,0,0,0,.864,5.348c.8,2.988.26,6.1.345,9.192a54.744,54.744,0,0,1-.074,6.479c-.081.914-.209,1.821-.236,2.74-.081,2.713.725,5.425.438,8.138-.136,1.263-.465,2.713.337,3.689.256.31.6.535.868.833a1.162,1.162,0,0,1,.341,1.093c-.109.306-.407.531-.453.849-.078.5.477.849.957,1.008a8.859,8.859,0,0,0,9.994-3.592c-.411-.023-.93-.264-.98-.67a4.322,4.322,0,0,1,.136-1.213,4.723,4.723,0,0,0-.128-2.12c-.139-.481-.356-.938-.508-1.414a14.374,14.374,0,0,1-.36-1.62,27.385,27.385,0,0,0-1.759-5.7c-.775-1.775-.17-3.712-.163-5.642a10.892,10.892,0,0,1,.093-2.732c.136-.527.388-1.011.535-1.55a6.686,6.686,0,0,0-.473-3.7c1.55-3.6,1.744-7.719,2.058-11.625l.531-6.588a6.232,6.232,0,0,1,.682-2.817,33.377,33.377,0,0,1,1.624,8.587,12.7,12.7,0,0,0,.291,2.515c.244.907.717,1.736,1.039,2.623.7,1.938.628,4.073.946,6.119.128.829.318,1.643.442,2.472.535,3.654-.333,7.363-1.2,10.947a39.1,39.1,0,0,0-.566,6.9c-.116,2.166-.232,4.332-.178,6.5.047,2,.2,4.139-.872,5.813a10.559,10.559,0,0,0,3.782,1.352,6.685,6.685,0,0,0,4.352-1.318,14.142,14.142,0,0,0,3.189-3.344c-.271-.062-.387-.43-.453-.7-.8-4,.326-8.1.492-12.168a25.888,25.888,0,0,0-.477-6.092c-.151-.775-.337-1.507-.446-2.267-.562-3.976.961-8.018.481-12.013-.225-1.868.581-3.813.868-5.673a20.058,20.058,0,0,0-.07-4.983l-1.275-13.079a15.5,15.5,0,0,0-1.112-5.189c-.907-1.938-.345-4.325-.442-6.46a26.592,26.592,0,0,1-10.145,2.248Z" transform="translate(-514.868 -491.909)" fill="#46455b"/>
        <path id="Path_162" data-name="Path 162" d="M777.735,448.723a41.634,41.634,0,0,1,4.084-8.215,12.11,12.11,0,0,0,.93-1.593,20.224,20.224,0,0,0,.922-4.022c.833-3.774,3.553-7.014,3.9-10.85a16.972,16.972,0,0,1,1.345-4,4.868,4.868,0,0,1,1.43-2.41,2.868,2.868,0,0,1,3.4.163,4,4,0,0,1,1.376,3.259,2.867,2.867,0,0,1-.465,1.573A5.574,5.574,0,0,1,793,423.876a7.033,7.033,0,0,0-3.026,4.263c-.744,3.189-.543,6.464-1.577,9.568s-2.325,6.127-3.189,9.3a29.847,29.847,0,0,1-1.639,5.317,6.372,6.372,0,0,1-4,3.615,10.82,10.82,0,0,0-.884-3.336C778.142,451.378,777.278,449.967,777.735,448.723Z" transform="translate(-568.039 -320.898)" fill="#a0616a"/>
        <path id="Path_163" data-name="Path 163" d="M690.637,458.211a17.677,17.677,0,0,0-1.721-6.522,6.284,6.284,0,0,1-.868-2.437,6.158,6.158,0,0,1,.539-2.344,60.432,60.432,0,0,0,2.073-8.1l1.07-5.154a7.84,7.84,0,0,0,1.259-1.465,7.107,7.107,0,0,0,1.267-3.631,4.9,4.9,0,0,0-1.275-3.573,2.128,2.128,0,0,0-1.593-.752,1.938,1.938,0,0,0-1.333.775,6.246,6.246,0,0,0-.988,2.17,9.554,9.554,0,0,0-.6,3.933c.155,1.1.7,2.286.143,3.247a78.195,78.195,0,0,0-4.418,10.075,16.968,16.968,0,0,0-.841,2.5,13.176,13.176,0,0,0-.147,4.185,54.933,54.933,0,0,0,1.511,7.75c.388,1.6.872,3.333,2.213,4.29A25.574,25.574,0,0,1,690.637,458.211Z" transform="translate(-500.437 -325.965)" fill="#a0616a"/>
        <circle id="Ellipse_30" data-name="Ellipse 30" cx="6.654" cy="6.654" r="6.654" transform="translate(191.107 119.385)" fill="#a0616a"/>
        <path id="Path_164" data-name="Path 164" d="M721.061,534.663a8.947,8.947,0,0,1-1.085,3.449c-.314.663-.725,1.4-1.442,1.55a32.259,32.259,0,0,0,6.251,1.794,6.875,6.875,0,0,0,2.232.128,5.363,5.363,0,0,0,1.779-.659,9.122,9.122,0,0,0,4.522-6.588,12.013,12.013,0,0,1-2.476.066,1.813,1.813,0,0,1-1.267-.469,1.9,1.9,0,0,1-.357-1.039q-.221-1.651-.353-3.309a13.115,13.115,0,0,0-4.747,1.089c-.62.271-1.225.585-1.864.818-.388.14-1.507.167-1.779.419C720.057,532.311,721.084,533.826,721.061,534.663Z" transform="translate(-525.784 -401.328)" fill="#a0616a"/>
        <path id="Path_165" data-name="Path 165" d="M705.745,533.3a4.185,4.185,0,0,0-3.542-3.367,8.037,8.037,0,0,1-2.081-.26c-1.1-.477-1.569-1.868-2.639-2.414a2.819,2.819,0,0,0-3.247.876,7.235,7.235,0,0,0-1.364,3.321,16.082,16.082,0,0,0-.36,4.921,2.209,2.209,0,0,0,.236.868,3.764,3.764,0,0,0,.794.814,3.929,3.929,0,0,1,1.267,3.015,8.834,8.834,0,0,0,.6,3.1c.926,2.744,1.856,5.491,2.662,8.273a5.365,5.365,0,0,1,.287,1.6,8.667,8.667,0,0,0-.2,2.306,9.015,9.015,0,0,1,.314,1.066,2.745,2.745,0,0,1-.108.829c-.508,2.178-1.965,7.192-1.713,9.413a56.718,56.718,0,0,1,11.8-2.325,25.942,25.942,0,0,1,2.9-.171c2.325,0,4.763.438,6.933-.415,2.011-.775,3.681-2.643,5.844-2.651.337-1.267-.632-5.274-1.194-6.46a27.986,27.986,0,0,1-2.511-14.993c.2-1.845-.535-3.7-.283-5.545a3.316,3.316,0,0,1,.353-1.236,1.3,1.3,0,0,1,1.035-.686,40.686,40.686,0,0,0-1.686-8.5c-.314-.984-.88-2.124-1.91-2.189-.93-.062-1.616.775-2.286,1.43a6.588,6.588,0,0,1-2.422,1.461,2.383,2.383,0,0,0-1.008.492c-.388.407-.388,1.07-.709,1.55-.558.86-1.984.942-2.325,1.9a5.878,5.878,0,0,0-.151.86,3.069,3.069,0,0,1-.915,1.465A5.906,5.906,0,0,1,705.745,533.3Z" transform="translate(-507.133 -396.247)" fill="#2f2e41"/>
        <path id="Path_166" data-name="Path 166" d="M721.585,486.584a1.2,1.2,0,0,0-.388-1.221,5.879,5.879,0,0,0-.628-.252,2.555,2.555,0,0,1-.725-.752,3.488,3.488,0,0,0-4.445-.651c-1.089.721-1.659,2-2.589,2.918-.477.477-1.046.849-1.527,1.325a6.84,6.84,0,0,0-1.779,3.666,19.885,19.885,0,0,0-.167,4.131,3.656,3.656,0,0,0,.178,1.232,3.274,3.274,0,0,0,.566.891,10.579,10.579,0,0,0,4.576,3.433,6.474,6.474,0,0,0,5.576-.477.991.991,0,0,0,.388-.388,1.221,1.221,0,0,0,0-.744,5.038,5.038,0,0,1,.267-2.879,19.073,19.073,0,0,0,.86-1.957,6.549,6.549,0,0,0,.062-2.325A23.939,23.939,0,0,1,721.585,486.584Z" transform="translate(-519.178 -368.137)" fill="#46455b"/>
        <path id="Path_167" data-name="Path 167" d="M1147.923,857.553c0,38.124,23.917,68.977,53.477,68.977" transform="translate(-832.932 -635.927)" fill="#46455b"/>
        <path id="Path_168" data-name="Path 168" d="M1335.768,924.583c0-38.557,26.688-69.752,59.677-69.752" transform="translate(-967.301 -633.979)" fill="#1c5997"/>
        <path id="Path_169" data-name="Path 169" d="M1215.983,869.613c0,36.217,15.249,65.525,34.1,65.525" transform="translate(-881.617 -644.553)" fill="#1c5997"/>
        <path id="Path_170" data-name="Path 170" d="M1335.768,875.9c0-49.265,30.85-89.128,68.977-89.128" transform="translate(-967.301 -585.295)" fill="#46455b"/>
        <ellipse id="Ellipse_31" data-name="Ellipse 31" cx="13.296" cy="2.248" rx="13.296" ry="2.248" transform="translate(352.851 299.265)" fill="#1c5997" opacity="0.1"/>
        <path id="Path_171" data-name="Path 171" d="M1296.239,1091.183s7.584-.233,9.87-1.86,11.668-3.573,12.234-.961,11.4,12.982,2.837,13.051-19.895-1.333-22.177-2.713S1296.239,1091.183,1296.239,1091.183Z" transform="translate(-939.025 -800.114)" fill="#a8a8a8"/>
        <path id="Path_172" data-name="Path 172" d="M1321.29,1110.789c-8.56.07-19.895-1.333-22.177-2.713-1.736-1.062-2.43-4.856-2.658-6.611h-.256s.48,6.115,2.763,7.506,13.613,2.794,22.177,2.713c2.469-.019,3.325-.9,3.278-2.2C1324.084,1110.3,1323.142,1110.774,1321.29,1110.789Z" transform="translate(-938.996 -810.401)" opacity="0.2"/>
        <path id="Path_173" data-name="Path 173" d="M1032.091,108.682a2.926,2.926,0,0,0,.531-1.628c0-3.534-7.2-6.394-16.082-6.394s-16.082,2.86-16.082,6.394a3.015,3.015,0,0,0,.632,1.814c-9.889,1.1-16.551,3.174-16.551,5.549,0,3.53,14.725,6.394,32.939,6.394s32.938-2.864,32.938-6.394C1050.428,111.918,1042.941,109.728,1032.091,108.682Z" transform="translate(-716.061 -94.511)" fill="#1c5997" opacity="0.1"/>
        <path id="Path_174" data-name="Path 174" d="M339.32,133.183a2.926,2.926,0,0,0,.531-1.628c0-3.534-7.2-6.394-16.082-6.394s-16.082,2.86-16.082,6.394a3.015,3.015,0,0,0,.663,1.814c-9.889,1.1-16.551,3.174-16.551,5.549,0,3.53,14.745,6.394,32.939,6.394s32.939-2.864,32.939-6.394C357.657,136.419,350.17,134.23,339.32,133.183Z" transform="translate(-220.535 -112.037)" fill="#1c5997" opacity="0.1"/>
        <path id="Path_175" data-name="Path 175" d="M855.838,124.521a2.224,2.224,0,0,1,2.744.822,6.821,6.821,0,0,1,.949,2.953c.345,2.294.6,4.925-.949,6.65a21.62,21.62,0,0,1,17.826-14.384" transform="translate(-624 -108.746)" fill="none" stroke="#1c5997" stroke-miterlimit="10" stroke-width="4.084" opacity="0.1"/>
        <path id="Path_176" data-name="Path 176" d="M401.838,265.49a1.447,1.447,0,0,1,1.763.527,4.15,4.15,0,0,1,.612,1.9c.221,1.476.387,3.166-.608,4.263a13.885,13.885,0,0,1,11.451-9.25" transform="translate(-299.247 -210.583)" fill="none" stroke="#1c5997" stroke-miterlimit="10" stroke-width="4.084" opacity="0.1"/>
        <path id="Path_177" data-name="Path 177" d="M1014.376,306.326a1.447,1.447,0,0,1,1.763.527,4.151,4.151,0,0,1,.612,1.9c.221,1.476.387,3.166-.608,4.263a13.885,13.885,0,0,1,11.451-9.25" transform="translate(-737.404 -239.794)" fill="none" stroke="#1c5997" stroke-miterlimit="10" stroke-width="4.084" opacity="0.1"/>
        <path id="Path_178" data-name="Path 178" d="M946.635,739.279v-9.417l4.34,4.34,1.085-1.124-6.2-6.2-6.2,6.2,1.085,1.081,4.34-4.3v9.417Z" transform="translate(-683.959 -542.453)" fill="#1c5997" opacity="0.1"/>
        <path id="Path_179" data-name="Path 179" d="M617.226,848.174v-9.417l4.34,4.34,1.085-1.124-6.2-6.2-6.2,6.2,1.085,1.081,4.34-4.3v9.417Z" transform="translate(-448.328 -620.348)" fill="#1c5997" opacity="0.1"/>
        <path id="Path_180" data-name="Path 180" d="M859.519,944.819V935.4l4.34,4.34,1.085-1.124-6.2-6.2-6.2,6.2,1.085,1.081,4.34-4.3v9.417Z" transform="translate(-621.643 -689.479)" fill="#1c5997" opacity="0.1"/>
      </g>
    </g>
  </g>
</svg>
