<svg xmlns="http://www.w3.org/2000/svg" width="14.23" height="14.23" viewBox="0 0 14.23 14.23">
  <g id="Group_1" data-name="Group 1" transform="translate(-1003.006 -955)">
    <g id="pencil" transform="translate(1003.006 954.997)">
      <path id="Path_1" data-name="Path 1" d="M70.4,160.707l1.408,1.408.176.176,5.458-5.458-1.761-1.761-5.458,5.458Z" transform="translate(-68.042 -150.244)" fill="#78b9eb"/>
      <path id="Path_2" data-name="Path 2" d="M30.629,337.508l1.408-1.408,1.408,1.408-1.408,1.408Z" transform="translate(-29.676 -325.637)" fill="#c6c5ca"/>
      <path id="Path_3" data-name="Path 3" d="M8,383.466l2.113-.7-1.408-1.408Z" transform="translate(-7.755 -369.482)" fill="#787680"/>
      <path id="Path_4" data-name="Path 4" d="M243.805,24.969l-3.873,3.873.176.176,1.937,1.937,2.632-2.632,1.241-1.241-.528-.528L244.334,25.5Z" transform="translate(-232.465 -24.189)" fill="#1e81ce"/>
      <path id="Path_5" data-name="Path 5" d="M381.359,9.053,382.415,8l1.056,1.056-1.056,1.056Z" transform="translate(-369.49 -7.745)" fill="#787680"/>
      <path id="Path_6" data-name="Path 6" d="M14.23,1.308a.249.249,0,0,0-.073-.176L13.1.076a.249.249,0,0,0-.352,0l-.88.88L11.517.6a.249.249,0,0,0-.352,0L7.291,4.477a.249.249,0,0,0,0,.352L2.01,10.111a.249.249,0,0,0,0,.352L.777,11.7s0,.005-.005.008a.249.249,0,0,0-.043.065c0,.005-.005.01-.007.015s0,.006,0,.009l-.7,2.113a.249.249,0,0,0,.236.328.246.246,0,0,0,.079-.013l2.112-.7s.006,0,.01,0l.017-.008a.244.244,0,0,0,.062-.042l.008-.005L3.77,12.223a.249.249,0,0,0,.352,0L9.4,6.942a.249.249,0,0,0,.352,0l2.458-2.458.357.349L9.228,8.174l.352.352L13.1,5.005a.249.249,0,0,0,0-.352l0,0-.532-.52,1.063-1.063a.249.249,0,0,0,0-.352l-.352-.352.88-.879a.249.249,0,0,0,.073-.177ZM1.062,12.332l.839.839-1.258.42Zm1.3.6L1.305,11.871l1.056-1.056,1.056,1.056ZM3.946,11.7,2.538,10.287,7.644,5.181,9.052,6.589ZM9.58,6.415,7.819,4.654l3.521-3.522L13.1,2.892Zm3.345-4.4-.7-.7.7-.7.7.7Z" transform="translate(0)"/>
    </g>
  </g>
</svg>
