<svg xmlns="http://www.w3.org/2000/svg" width="421.996" height="431.297" viewBox="0 0 421.996 431.297">
  <g id="logout_5_" data-name="logout (5)" transform="translate(9.313 9.252)">
    <path id="Path_36726" data-name="Path 36726" d="M39.268,39.332h256.1A19.369,19.369,0,0,1,314.739,58.7V312.65A19.369,19.369,0,0,1,295.37,332.02H39.268Z" transform="translate(-22.308 -22.31)" fill="#1c5997" opacity="0.48"/>
    <path id="Path_36727" data-name="Path 36727" d="M39.268,39.332,177,125.416V418.1L39.268,332.018Z" transform="translate(-22.308 -22.31)" fill="#1c5997"/>
    <path id="Path_36728" data-name="Path 36728" d="M292.509,189.458a16.949,16.949,0,0,0-16.949,16.949v83.932a2.424,2.424,0,0,1-2.424,2.424H171.72V103.1a16.948,16.948,0,0,0-7.965-14.371L76.131,33.968H273.14a2.424,2.424,0,0,1,2.424,2.424V68.675a16.948,16.948,0,1,0,33.9,0V36.389A36.366,36.366,0,0,0,273.14.071C0,.071,15.688-.373,11.749.932A16.947,16.947,0,0,0,.209,15.076C.022,16.706.09-4.349.09,309.708a16.948,16.948,0,0,0,7.965,14.371L145.79,410.165a16.971,16.971,0,0,0,25.923-14.371V326.656H273.14a36.366,36.366,0,0,0,36.316-36.316V206.406a16.949,16.949,0,0,0-16.949-16.949ZM137.819,365.214l-103.84-64.9V47.6l103.84,64.9Z" transform="translate(-0.078 0.002)" stroke="#f2f2f2" stroke-width="18.649"/>
    <path id="Path_36729" data-name="Path 36729" d="M215.981,417.913a16.949,16.949,0,0,0-16.949,16.949v17.217a16.948,16.948,0,1,0,33.9,0V434.862a16.949,16.949,0,0,0-16.949-16.949Z" transform="translate(-129.721 -227.738)" fill="#fff" stroke="#1c5997" stroke-width="14.92"/>
    <path id="Path_36731" data-name="Path 36731" d="M822.485,298.468a16.949,16.949,0,0,0,23.728-3.389l25.826-34.432a16.945,16.945,0,0,0,0-20.337l-25.826-34.434A16.946,16.946,0,1,0,819.095,226.2l18.2,24.264L819.1,274.73a16.949,16.949,0,0,0,3.389,23.737Z" transform="translate(-472.071 -112.583)" stroke="#f2f2f2" stroke-width="18.649"/>
    <path id="Path_36732" data-name="Path 36732" d="M835.913,517.378H792.87a16.948,16.948,0,1,0,0,33.9h43.043a16.948,16.948,0,1,0,0-33.9Z" transform="translate(-460.693 -317.729)" stroke="#f2f2f2" stroke-width="18.649"/>
    <rect id="Rectangle_7083" data-name="Rectangle 7083" width="100.707" height="14.92" rx="7.46" transform="translate(259.228 130.337)"/>
  </g>
</svg>
