<svg xmlns="http://www.w3.org/2000/svg" width="17.428" height="16.278" viewBox="0 0 17.428 16.278"><defs><style>.a{fill:#fff;}</style></defs><path class="a" d="M17.358,7.406a1.439,1.439,0,0,0-.686-1.055,1.418,1.418,0,0,0-1.237-.111.68.68,0,0,1-.85-.382,6.425,6.425,0,0,0-.647-1.126.678.678,0,0,1,.094-.929,1.408,1.408,0,0,0,.517-1.122,1.435,1.435,0,0,0-.574-1.121A8.709,8.709,0,0,0,12.1.475a1.446,1.446,0,0,0-1.262.064,1.406,1.406,0,0,0-.714,1.008.68.68,0,0,1-.762.546,6.221,6.221,0,0,0-1.29,0,.678.678,0,0,1-.761-.546A1.411,1.411,0,0,0,6.594.538,1.443,1.443,0,0,0,5.332.475,8.655,8.655,0,0,0,3.454,1.559,1.436,1.436,0,0,0,2.88,2.681,1.413,1.413,0,0,0,3.4,3.805a.676.676,0,0,1,.093.928,6.335,6.335,0,0,0-.646,1.126.686.686,0,0,1-.859.38,1.408,1.408,0,0,0-1.23.113A1.438,1.438,0,0,0,.071,7.405a8.5,8.5,0,0,0,0,2.185,1.439,1.439,0,0,0,.686,1.055,1.411,1.411,0,0,0,1.237.111.68.68,0,0,1,.85.382,6.443,6.443,0,0,0,.647,1.126.678.678,0,0,1-.094.929,1.407,1.407,0,0,0-.517,1.122,1.435,1.435,0,0,0,.574,1.121,8.708,8.708,0,0,0,1.878,1.085,1.457,1.457,0,0,0,.568.115,1.44,1.44,0,0,0,.695-.18,1.406,1.406,0,0,0,.714-1.008A.676.676,0,0,1,8.07,14.9a6.221,6.221,0,0,0,1.29,0,.676.676,0,0,1,.761.546,1.411,1.411,0,0,0,.714,1.008,1.445,1.445,0,0,0,1.262.064,8.7,8.7,0,0,0,1.878-1.085,1.436,1.436,0,0,0,.574-1.121,1.412,1.412,0,0,0-.518-1.125.676.676,0,0,1-.093-.928,6.4,6.4,0,0,0,.647-1.125.683.683,0,0,1,.851-.383l.133-.355-.125.358a1.407,1.407,0,0,0,1.23-.113,1.437,1.437,0,0,0,.686-1.054,8.593,8.593,0,0,0,.07-1.092,8.467,8.467,0,0,0-.07-1.092Zm-8.644,4.5a3.41,3.41,0,1,1,3.41-3.41A3.414,3.414,0,0,1,8.714,11.908Zm0,0" transform="translate(0 -0.358)"/><path class="a" d="M5.9,16.612a1.472,1.472,0,0,1-.567-.115,8.736,8.736,0,0,1-1.878-1.085,1.438,1.438,0,0,1-.574-1.123A1.413,1.413,0,0,1,3.4,13.166a.678.678,0,0,0,.094-.929,6.4,6.4,0,0,1-.647-1.127.684.684,0,0,0-.849-.381,1.41,1.41,0,0,1-1.238-.111A1.437,1.437,0,0,1,.07,9.564a8.492,8.492,0,0,1,0-2.184A1.437,1.437,0,0,1,.756,6.326a1.4,1.4,0,0,1,1.23-.113.685.685,0,0,0,.859-.38,6.362,6.362,0,0,1,.647-1.125A.677.677,0,0,0,3.4,3.78,1.411,1.411,0,0,1,2.88,2.656a1.439,1.439,0,0,1,.573-1.122A8.776,8.776,0,0,1,5.331.449,1.439,1.439,0,0,1,6.594.514a1.406,1.406,0,0,1,.714,1.008.674.674,0,0,0,.761.545,6.221,6.221,0,0,1,1.29,0,.675.675,0,0,0,.762-.545A1.408,1.408,0,0,1,10.833.514,1.441,1.441,0,0,1,12.1.449a8.735,8.735,0,0,1,1.878,1.085,1.438,1.438,0,0,1,.574,1.123,1.406,1.406,0,0,1-.518,1.121.678.678,0,0,0-.094.929,6.4,6.4,0,0,1,.647,1.127.685.685,0,0,0,.849.381,1.414,1.414,0,0,1,1.238.111,1.436,1.436,0,0,1,.686,1.055,8.329,8.329,0,0,1,.071,1.092,8.494,8.494,0,0,1-.07,1.093,1.437,1.437,0,0,1-.686,1.054,1.4,1.4,0,0,1-1.23.113l-.008,0a.686.686,0,0,0-.85.383,6.362,6.362,0,0,1-.647,1.125.677.677,0,0,0,.093.928,1.414,1.414,0,0,1,.518,1.123,1.438,1.438,0,0,1-.573,1.122A8.765,8.765,0,0,1,12.1,16.5a1.441,1.441,0,0,1-1.262-.064,1.406,1.406,0,0,1-.714-1.008.673.673,0,0,0-.761-.545,6.221,6.221,0,0,1-1.29,0,.672.672,0,0,0-.761.545,1.408,1.408,0,0,1-.714,1.008,1.429,1.429,0,0,1-.7.18ZM2.212,9.935a1.458,1.458,0,0,1,1.323.868,5.625,5.625,0,0,0,.571.994,1.425,1.425,0,0,1-.228,1.955.66.66,0,0,0-.241.523.686.686,0,0,0,.273.533,7.934,7.934,0,0,0,1.715.99.682.682,0,0,0,.6-.03A.645.645,0,0,0,6.56,15.3a1.417,1.417,0,0,1,1.588-1.174,5.525,5.525,0,0,0,1.131,0A1.424,1.424,0,0,1,10.867,15.3a.646.646,0,0,0,.332.468.684.684,0,0,0,.6.03,7.944,7.944,0,0,0,1.716-.99.685.685,0,0,0,.273-.533.656.656,0,0,0-.24-.523,1.427,1.427,0,0,1-.229-1.956,5.591,5.591,0,0,0,.571-.993,1.441,1.441,0,0,1,1.806-.783l.007,0a.657.657,0,0,0,.577-.052.685.685,0,0,0,.325-.5,7.862,7.862,0,0,0,.064-1,7.651,7.651,0,0,0-.064-.995.681.681,0,0,0-.325-.5.656.656,0,0,0-.573-.053,1.443,1.443,0,0,1-1.815-.777,5.632,5.632,0,0,0-.571-.994A1.425,1.425,0,0,1,13.549,3.2a.66.66,0,0,0,.241-.524.685.685,0,0,0-.274-.533,7.93,7.93,0,0,0-1.715-.99.689.689,0,0,0-.6.03.646.646,0,0,0-.332.468A1.427,1.427,0,0,1,9.279,2.82a5.544,5.544,0,0,0-1.131,0A1.424,1.424,0,0,1,6.56,1.646a.646.646,0,0,0-.332-.468.689.689,0,0,0-.6-.03,7.932,7.932,0,0,0-1.715.99.685.685,0,0,0-.273.533.656.656,0,0,0,.24.523A1.426,1.426,0,0,1,4.107,5.15a5.6,5.6,0,0,0-.571.993,1.438,1.438,0,0,1-1.809.782.665.665,0,0,0-.581.05.685.685,0,0,0-.325.5,7.816,7.816,0,0,0-.064,1,7.628,7.628,0,0,0,.065.995.681.681,0,0,0,.325.5.661.661,0,0,0,.573.053,1.413,1.413,0,0,1,.493-.089Zm0,0" transform="translate(0 -0.334)"/><path class="a" d="M153.919,142.661a4.587,4.587,0,1,1,4.587-4.587A4.592,4.592,0,0,1,153.919,142.661Zm0-8.154a3.567,3.567,0,1,0,3.567,3.567A3.571,3.571,0,0,0,153.919,134.507Zm0,0" transform="translate(-145.205 -129.935)"/></svg>