<svg xmlns="http://www.w3.org/2000/svg" width="17.474" height="17.474" viewBox="0 0 17.474 17.474"><defs><style>.a{fill:#fff;}</style></defs><path class="a" d="M32.536,8.191A1.528,1.528,0,0,0,33.6,7.759l1.515.758A1.5,1.5,0,0,0,35.1,8.7a1.536,1.536,0,0,0,3.072,0,1.517,1.517,0,0,0-.154-.658l2.056-2.056a1.517,1.517,0,0,0,.658.154,1.538,1.538,0,0,0,1.536-1.536,1.513,1.513,0,0,0-.077-.455l1.786-1.339a1.535,1.535,0,1,0-.686-1.277,1.513,1.513,0,0,0,.077.455L41.577,3.33a1.529,1.529,0,0,0-2.232,1.935L37.289,7.321a1.509,1.509,0,0,0-1.721.278l-1.515-.758a1.5,1.5,0,0,0,.019-.186,1.536,1.536,0,1,0-1.536,1.536Zm0,0" transform="translate(-29.942 0)"/><path class="a" d="M16.962,161.331h-.546V150.512A.512.512,0,0,0,15.9,150H13.857a.512.512,0,0,0-.512.512v10.819H12.321v-7.747a.512.512,0,0,0-.512-.512H9.761a.512.512,0,0,0-.512.512v7.747H8.225v-3.652a.512.512,0,0,0-.512-.512H5.665a.512.512,0,0,0-.512.512v3.652H4.13v-5.7a.512.512,0,0,0-.512-.512H1.57a.512.512,0,0,0-.512.512v5.7H.512a.512.512,0,1,0,0,1.024h16.45a.512.512,0,1,0,0-1.024Zm0,0" transform="translate(0 -144.881)"/></svg>