<svg xmlns="http://www.w3.org/2000/svg" width="18.956" height="15.952" viewBox="0 0 18.956 15.952"><defs><style>.a{fill:#fff;}</style></defs><path class="a" d="M11.439,9.086a3.445,3.445,0,0,1,1.6,2.559,2.779,2.779,0,1,0-1.6-2.559ZM9.618,14.778A2.78,2.78,0,1,0,6.837,12,2.78,2.78,0,0,0,9.618,14.778Zm1.179.189H8.438a3.564,3.564,0,0,0-3.56,3.56v2.885l.007.045.2.062a16.2,16.2,0,0,0,4.84.78,9.936,9.936,0,0,0,4.226-.793l.186-.094h.02V18.528A3.563,3.563,0,0,0,10.8,14.968Zm4.6-2.87H13.056A3.426,3.426,0,0,1,12,14.484a4.23,4.23,0,0,1,3.021,4.048v.889a9.579,9.579,0,0,0,3.731-.784l.186-.094h.02V15.657A3.564,3.564,0,0,0,15.4,12.1ZM4.74,11.909a2.762,2.762,0,0,0,1.479-.429A3.441,3.441,0,0,1,7.511,9.285c0-.052.008-.1.008-.156a2.78,2.78,0,1,0-2.78,2.78Zm2.5,2.576A3.428,3.428,0,0,1,6.18,12.111c-.087-.006-.173-.013-.261-.013H3.56A3.564,3.564,0,0,0,0,15.657v2.885l.007.044.2.063a16.69,16.69,0,0,0,4.009.753v-.871A4.231,4.231,0,0,1,7.236,14.484Z" transform="translate(0 -6.348)"/></svg>